<?xml version="1.0" encoding="utf-8"?>
<!-- Generator: Adobe Illustrator 25.2.3, SVG Export Plug-In . SVG Version: 6.00 Build 0)  -->
<svg version="1.1" id="Capa_1" xmlns="http://www.w3.org/2000/svg" xmlns:xlink="http://www.w3.org/1999/xlink" x="0px" y="0px"
	 viewBox="0 0 290 290" style="enable-background:new 0 0 290 290;" xml:space="preserve">
<style type="text/css">
	.st0{fill:#1D1D1B;}
	.st1{fill:none;}
</style>
<g>
	<g>
		<path class="st0" d="M215,88.56c-1.1-1.27-2.29-2.46-3.56-3.56c-7.05-6.22-16.31-10-26.44-10h-80c-10.13,0-19.39,3.78-26.44,10
			c-1.27,1.1-2.46,2.29-3.56,3.56c-6.22,7.05-10,16.31-10,26.44v120c0,5.52,4.48,10,10,10h140c5.52,0,10-4.48,10-10V115
			C225,104.87,221.22,95.61,215,88.56z M215,235H75V115c0-16.57,13.43-30,30-30h80c16.57,0,30,13.43,30,30V235z"/>
		<rect x="105" y="125" class="st0" width="80" height="10"/>
		<path class="st0" d="M85,165v60h120v-60H85z M195,215H95v-40h100V215z"/>
		<path class="st0" d="M185,55v30h-10V55h-60v30h-10V55c0-5.52,4.48-10,10-10h60C180.52,45,185,49.48,185,55z"/>
		<path class="st0" d="M245,175v50h-20v-10h10v-40h-10v-10h10C240.52,165,245,169.48,245,175z"/>
		<path class="st0" d="M55,175v40h10v10H45v-50c0-5.52,4.48-10,10-10h10v10H55z"/>
	</g>
	<g>
		<rect x="25" y="25" class="st1" width="240" height="240"/>
	</g>
</g>
</svg>
