<?xml version="1.0" encoding="utf-8"?>
<!-- Generator: Adobe Illustrator 25.2.3, SVG Export Plug-In . SVG Version: 6.00 Build 0)  -->
<svg version="1.1" id="Capa_1" xmlns="http://www.w3.org/2000/svg" xmlns:xlink="http://www.w3.org/1999/xlink" x="0px" y="0px"
	 viewBox="0 0 290 290" style="enable-background:new 0 0 290 290;" xml:space="preserve">
<style type="text/css">
	.st0{fill:#1D1D1B;}
	.st1{fill:none;}
</style>
<g>
	<g>
		<path class="st0" d="M235,145H55c-5.52,0-10,4.48-10,10v70h10v-20h180v20h10v-70C245,149.48,240.52,145,235,145z M235,195H55v-40
			h180V195z"/>
		<path class="st0" d="M235,145H55c-5.52,0-10,4.48-10,10v70h10v-20h180v20h10v-70C245,149.48,240.52,145,235,145z M235,195H55v-40
			h180V195z"/>
		<path class="st0" d="M225,75v70h-10V75H75v70H65V75c0-5.52,4.48-10,10-10h140C220.52,65,225,69.48,225,75z"/>
		<path class="st0" d="M205,115v30h-10v-30h-45v30h-10v-30H95v30H85v-30c0-5.52,4.48-10,10-10h100C200.52,105,205,109.48,205,115z"
			/>
	</g>
	<rect x="25" y="25" class="st1" width="240" height="240"/>
</g>
</svg>
