<?xml version="1.0" encoding="utf-8"?>
<!-- Generator: Adobe Illustrator 25.2.3, SVG Export Plug-In . SVG Version: 6.00 Build 0)  -->
<svg version="1.1" id="Capa_1" xmlns="http://www.w3.org/2000/svg" xmlns:xlink="http://www.w3.org/1999/xlink" x="0px" y="0px"
	 viewBox="0 0 290 290" style="enable-background:new 0 0 290 290;" xml:space="preserve">
<style type="text/css">
	.st0{fill:#1D1E1B;}
	.st1{fill:none;}
</style>
<g>
	<path class="st0" d="M219.56,78.16c-20.58-20.58-53.98-20.58-74.56,0c-20.58-20.58-53.98-20.58-74.56,0
		c-20.58,20.58-20.58,53.98,0,74.56L145,227.28l74.56-74.56C240.15,132.14,240.15,98.74,219.56,78.16z M212.11,145.26L145,212.37
		l-67.11-67.11c-16.45-16.45-16.45-43.2,0-59.65c7.96-7.96,18.56-12.35,29.82-12.35c11.27,0,21.87,4.39,29.83,12.35l7.46,7.46
		l7.46-7.46c7.96-7.96,18.56-12.35,29.83-12.35c11.26,0,21.86,4.39,29.82,12.35C228.56,102.06,228.56,128.81,212.11,145.26z"/>
	<rect x="25" y="25" class="st1" width="240" height="240"/>
</g>
</svg>
