<?xml version="1.0" encoding="utf-8"?>
<!-- Generator: Adobe Illustrator 25.2.3, SVG Export Plug-In . SVG Version: 6.00 Build 0)  -->
<svg version="1.1" id="Capa_1" xmlns="http://www.w3.org/2000/svg" xmlns:xlink="http://www.w3.org/1999/xlink" x="0px" y="0px"
	 viewBox="0 0 290 290" style="enable-background:new 0 0 290 290;" xml:space="preserve">
<style type="text/css">
	.st0{fill:none;}
</style>
<g>
	<path d="M225,145c0,0.3-0.02,0.6-0.08,0.91c-0.45,2.41-2.56,4.09-4.92,4.09H70c-2.76,0-5-2.24-5-5s2.24-5,5-5h150
		c0.3,0,0.6,0.02,0.91,0.08C223.32,140.53,225,142.64,225,145z"/>
	<path d="M225,185c0,0.3-0.02,0.6-0.08,0.91c-0.45,2.41-2.56,4.09-4.92,4.09H70c-2.76,0-5-2.24-5-5s2.24-5,5-5h150
		c0.3,0,0.6,0.02,0.91,0.08C223.32,180.53,225,182.64,225,185z"/>
	<path d="M225,105c0,0.3-0.02,0.6-0.08,0.91c-0.45,2.41-2.56,4.09-4.92,4.09H70c-2.76,0-5-2.24-5-5s2.24-5,5-5h150
		c0.3,0,0.6,0.02,0.91,0.08C223.32,100.53,225,102.64,225,105z"/>
	<rect x="25" y="25" class="st0" width="240" height="240"/>
</g>
</svg>
