<?xml version="1.0" encoding="utf-8"?>
<!-- Generator: Adobe Illustrator 25.2.3, SVG Export Plug-In . SVG Version: 6.00 Build 0)  -->
<svg version="1.1" id="Capa_1" xmlns="http://www.w3.org/2000/svg" xmlns:xlink="http://www.w3.org/1999/xlink" x="0px" y="0px"
	 viewBox="0 0 290 290" style="enable-background:new 0 0 290 290;" xml:space="preserve">
<style type="text/css">
	.st0{fill:none;}
</style>
<g>
	<path d="M215,178.56c-1.1-1.27-2.29-2.46-3.56-3.56c-7.05-6.22-16.31-10-26.44-10h-80c-10.13,0-19.39,3.78-26.44,10
		c-1.27,1.1-2.46,2.29-3.56,3.56c-6.22,7.05-10,16.31-10,26.44v30c0,5.52,4.48,10,10,10h140c5.52,0,10-4.48,10-10v-30
		C225,194.87,221.22,185.61,215,178.56z M215,235H75v-30c0-16.57,13.43-30,30-30h80c16.57,0,30,13.43,30,30V235z"/>
	<path d="M145,45c-27.61,0-50,22.39-50,50s22.39,50,50,50s50-22.39,50-50S172.61,45,145,45z M145,135c-22.09,0-40-17.91-40-40
		s17.91-40,40-40s40,17.91,40,40S167.09,135,145,135z"/>
	<g>
		<rect x="25" y="25" class="st0" width="240" height="240"/>
	</g>
</g>
</svg>
