<?xml version="1.0" encoding="utf-8"?>
<!-- Generator: Adobe Illustrator 25.2.3, SVG Export Plug-In . SVG Version: 6.00 Build 0)  -->
<svg version="1.1" id="Capa_1" xmlns="http://www.w3.org/2000/svg" xmlns:xlink="http://www.w3.org/1999/xlink" x="0px" y="0px"
	 viewBox="0 0 290 290" style="enable-background:new 0 0 290 290;" xml:space="preserve">
<style type="text/css">
	.st0{fill:#1D1D1B;}
	.st1{fill:none;}
</style>
<g>
	<path class="st0" d="M225,95h-30V75c0-5.52-4.48-10-10-10h-70c-5.52,0-10,4.48-10,10v20H65c-11.05,0-20,8.95-20,20v90
		c0,11.05,8.95,20,20,20h160c11.05,0,20-8.95,20-20v-90C245,103.95,236.05,95,225,95z M115,75h70v20h-70V75z M235,205
		c0,5.52-4.48,10-10,10H65c-5.52,0-10-4.48-10-10v-90c0-5.52,4.48-10,10-10h160c5.52,0,10,4.48,10,10V205z"/>
	<polygon class="st0" points="184.49,135.5 142.07,177.93 135,185 106.71,156.72 113.78,149.65 135,170.86 177.42,128.43 	"/>
	<rect x="25" y="25" class="st1" width="240" height="240"/>
</g>
</svg>
