<?xml version="1.0" encoding="utf-8"?>
<!-- Generator: Adobe Illustrator 25.2.3, SVG Export Plug-In . SVG Version: 6.00 Build 0)  -->
<svg version="1.1" id="Capa_1" xmlns="http://www.w3.org/2000/svg" xmlns:xlink="http://www.w3.org/1999/xlink" x="0px" y="0px"
	 viewBox="0 0 290 290" style="enable-background:new 0 0 290 290;" xml:space="preserve">
<style type="text/css">
	.st0{fill:none;}
</style>
<g>
	<path d="M215,65H75V45H65v200h10v-70h140c5.52,0,10-4.48,10-10V75C225,69.48,220.52,65,215,65z M215,165H75V75h140V165z"/>
	<path d="M145,90c-16.57,0-30,13.43-30,30s13.43,30,30,30s30-13.43,30-30S161.57,90,145,90z M145,140c-11.05,0-20-8.95-20-20
		s8.95-20,20-20s20,8.95,20,20S156.05,140,145,140z"/>
	<g>
		<rect x="25" y="25" class="st0" width="240" height="240"/>
	</g>
</g>
</svg>
