<?xml version="1.0" encoding="utf-8"?>
<!-- Generator: Adobe Illustrator 25.2.3, SVG Export Plug-In . SVG Version: 6.00 Build 0)  -->
<svg version="1.1" id="Capa_1" xmlns="http://www.w3.org/2000/svg" xmlns:xlink="http://www.w3.org/1999/xlink" x="0px" y="0px"
	 viewBox="0 0 290 290" style="enable-background:new 0 0 290 290;" xml:space="preserve">
<style type="text/css">
	.st0{fill:#1D1D1B;}
	.st1{fill:none;}
</style>
<g>
	<path class="st0" d="M115,215v15c0,8.28-6.72,15-15,15s-15-6.72-15-15v-15h10v15c0,2.76,2.24,5,5,5s5-2.24,5-5v-15H115z"/>
	<path class="st0" d="M205,215v15c0,8.28-6.72,15-15,15s-15-6.72-15-15v-15h10v15c0,2.76,2.24,5,5,5s5-2.24,5-5v-15H205z"/>
	<path class="st0" d="M215,58.56c-1.1-1.27-2.29-2.46-3.56-3.56c-7.05-6.22-16.31-10-26.44-10h-80c-10.13,0-19.39,3.78-26.44,10
		c-1.27,1.1-2.46,2.29-3.56,3.56C68.78,65.61,65,74.87,65,85v130h160V85C225,74.87,221.22,65.61,215,58.56z M215,205H75v-60h140V205
		z M215,135H75V85c0-16.57,13.43-30,30-30h80c16.57,0,30,13.43,30,30V135z"/>
	<path class="st0" d="M175,155c-11.05,0-20,8.95-20,20s8.95,20,20,20s20-8.95,20-20S186.05,155,175,155z M175,185
		c-5.52,0-10-4.48-10-10s4.48-10,10-10s10,4.48,10,10S180.52,185,175,185z"/>
	<path class="st0" d="M115,155c-11.05,0-20,8.95-20,20s8.95,20,20,20s20-8.95,20-20S126.05,155,115,155z M115,185
		c-5.52,0-10-4.48-10-10s4.48-10,10-10s10,4.48,10,10S120.52,185,115,185z"/>
	<rect x="25" y="25" class="st1" width="240" height="240"/>
</g>
</svg>
